<?xml version="1.0" ?><svg id="Layer_1" style="enable-background:new 0 0 500 500;" version="1.1" viewBox="0 0 500 500" xml:space="preserve" xmlns="http://www.w3.org/2000/svg" xmlns:xlink="http://www.w3.org/1999/xlink"><style type="text/css">
	.st0{fill:#2C2D2D;}
	.st1{fill:#2C2D2D;stroke:#3E466E;stroke-width:0.5;stroke-miterlimit:10;}
</style><g><path class="st0" d="M263.21,46.98c-1.71-1.05-3.55-1.91-5.5-2.53v20.97l-7.63,4.8l-7.62-4.8V44.4c-1.95,0.61-3.79,1.44-5.5,2.48   c-7.3,4.42-12.17,12.43-12.17,21.59c0,11.76,8.05,21.64,18.94,24.42c2,0.52,4.1,0.79,6.27,0.79c2.16,0,4.26-0.27,6.27-0.79   c10.89-2.78,18.94-12.66,18.94-24.42C275.21,59.38,270.41,51.42,263.21,46.98z M250,87.69c-10.62,0-19.22-8.61-19.22-19.22   c0-5.59,2.38-10.61,6.18-14.12v14.12l13.12,8.24l13.13-8.24V54.5c3.7,3.51,6.01,8.47,6.01,13.97   C269.22,79.08,260.62,87.69,250,87.69z"/><path class="st0" d="M265.4,147.77c0,8.51-6.9,15.4-15.4,15.4c-8.5,0-15.4-6.9-15.4-15.4c0-6.28,3.75-11.67,9.13-14.07v-40.8   c2,0.51,4.1,0.79,6.27,0.79c2.16,0,4.26-0.27,6.27-0.79v40.8C261.65,136.1,265.4,141.5,265.4,147.77z"/></g><g><path class="st0" d="M139.46,103.81c-6.42-6.43-15.44-8.66-23.67-6.7c-1.95,0.46-3.86,1.16-5.68,2.09l14.83,14.83l-2.01,8.79   l-8.78,2l-14.87-14.87c-0.94,1.81-1.65,3.71-2.13,5.65c-2.03,8.28,0.18,17.39,6.66,23.86c8.31,8.32,20.99,9.61,30.67,3.88   c0.44-0.26,0.88-0.54,1.31-0.83c0.43-0.3,0.86-0.61,1.27-0.93c0.84-0.65,1.64-1.36,2.4-2.12c0.96-0.95,1.82-1.96,2.59-3.02   c0.31-0.43,0.61-0.86,0.88-1.3c0.14-0.22,0.28-0.44,0.41-0.66C149.07,124.8,147.78,112.12,139.46,103.81z M135.23,135.23   c-7.51,7.5-19.68,7.5-27.19,0c-3.95-3.95-5.82-9.19-5.61-14.36l9.98,9.99l15.11-3.45l3.46-15.12l-9.88-9.87   c5.1-0.14,10.24,1.73,14.13,5.62C142.73,115.55,142.73,127.72,135.23,135.23z"/><path class="st0" d="M188.6,166.82c6.02,6.02,6.02,15.77,0,21.79c-6.01,6.01-15.77,6.01-21.78,0c-4.44-4.44-5.6-10.9-3.49-16.41   l-28.85-28.85c1.78-1.05,3.46-2.34,4.99-3.87c1.53-1.53,2.82-3.21,3.88-4.99l28.85,28.85C177.69,161.22,184.17,162.38,188.6,166.82   z"/></g><g><path class="st0" d="M92.89,243.73c-2.78-10.89-12.66-18.94-24.42-18.94c-9.09,0-17.05,4.8-21.49,12c-1.05,1.71-1.91,3.55-2.53,5.5   h20.97l4.8,7.63l-4.8,7.62H44.4c0.61,1.95,1.44,3.79,2.48,5.5c4.42,7.3,12.43,12.17,21.59,12.17c11.76,0,21.64-8.05,24.42-18.94   c0.52-2,0.79-4.1,0.79-6.27C93.68,247.84,93.41,245.74,92.89,243.73z M68.47,269.22c-5.59,0-10.61-2.38-14.12-6.18h14.12   l8.24-13.12l-8.24-13.13H54.5c3.51-3.7,8.47-6.01,13.97-6.01c10.61,0,19.22,8.6,19.22,19.22S79.08,269.22,68.47,269.22z"/><path class="st0" d="M147.77,234.6c8.51,0,15.4,6.9,15.4,15.4c0,8.5-6.9,15.4-15.4,15.4c-6.28,0-11.67-3.75-14.07-9.13h-40.8   c0.51-2,0.79-4.1,0.79-6.27c0-2.16-0.27-4.26-0.79-6.27h40.8C136.1,238.35,141.5,234.6,147.77,234.6z"/></g><g><path class="st0" d="M143.34,365.52c-0.26-0.44-0.54-0.88-0.83-1.31c-0.3-0.43-0.61-0.86-0.93-1.27c-0.65-0.84-1.36-1.64-2.12-2.4   c-0.95-0.96-1.96-1.82-3.02-2.59c-0.43-0.31-0.86-0.61-1.3-0.88c-0.22-0.14-0.44-0.28-0.66-0.41c-9.68-5.73-22.36-4.44-30.67,3.88   c-6.43,6.42-8.66,15.44-6.7,23.67c0.46,1.95,1.16,3.86,2.09,5.68l14.83-14.83l8.79,2.01l2,8.78l-14.87,14.87   c1.81,0.94,3.7,1.65,5.65,2.13c8.28,2.03,17.39-0.18,23.86-6.66C147.78,387.88,149.07,375.2,143.34,365.52z M135.23,391.96   c-3.95,3.95-9.19,5.82-14.36,5.61l9.99-9.98l-3.45-15.11l-15.12-3.46l-9.87,9.88c-0.14-5.1,1.73-10.24,5.62-14.13   c7.51-7.5,19.68-7.5,27.19,0C142.73,372.28,142.73,384.45,135.23,391.96z"/><path class="st0" d="M166.82,311.4c6.02-6.02,15.77-6.02,21.79,0c6.01,6.01,6.01,15.77,0,21.78c-4.44,4.44-10.9,5.6-16.41,3.49   l-28.85,28.85c-1.05-1.78-2.34-3.46-3.87-4.99c-1.53-1.53-3.21-2.82-4.99-3.88l28.85-28.85   C161.22,322.31,162.38,315.83,166.82,311.4z"/></g><g><path class="st0" d="M256.27,407.11c-2-0.52-4.1-0.79-6.27-0.79c-2.16,0-4.26,0.27-6.27,0.79c-10.89,2.78-18.94,12.66-18.94,24.42   c0,9.09,4.8,17.05,12,21.49c1.71,1.05,3.55,1.91,5.5,2.53v-20.97l7.63-4.8l7.62,4.8v21.02c1.95-0.61,3.79-1.44,5.5-2.48   c7.3-4.42,12.17-12.43,12.17-21.59C275.21,419.77,267.16,409.89,256.27,407.11z M263.04,445.65v-14.12l-13.12-8.24l-13.13,8.24   v13.97c-3.7-3.51-6.01-8.47-6.01-13.97c0-10.61,8.6-19.22,19.22-19.22s19.22,8.61,19.22,19.22   C269.22,437.12,266.84,442.14,263.04,445.65z"/><path class="st0" d="M234.6,352.23c0-8.51,6.9-15.4,15.4-15.4c8.5,0,15.4,6.9,15.4,15.4c0,6.28-3.75,11.67-9.13,14.07v40.8   c-2-0.51-4.1-0.79-6.27-0.79c-2.16,0-4.26,0.27-6.27,0.79v-40.8C238.35,363.9,234.6,358.5,234.6,352.23z"/></g><g><path class="st0" d="M396.19,360.54c-8.31-8.32-20.99-9.61-30.67-3.88c-0.44,0.26-0.88,0.54-1.31,0.83   c-0.43,0.3-0.86,0.61-1.27,0.93c-0.84,0.65-1.64,1.36-2.4,2.12c-0.96,0.95-1.82,1.96-2.59,3.02c-0.31,0.43-0.6,0.86-0.88,1.3   c-0.14,0.22-0.28,0.44-0.41,0.66c-5.73,9.68-4.44,22.36,3.88,30.67c6.42,6.43,15.44,8.66,23.67,6.7c1.95-0.46,3.86-1.16,5.68-2.09   l-14.83-14.83l2.01-8.79l8.78-2l14.87,14.87c0.94-1.81,1.65-3.71,2.13-5.65C404.88,376.12,402.67,367.01,396.19,360.54z    M387.59,369.14l-15.11,3.45l-3.46,15.12l9.88,9.87c-5.1,0.14-10.24-1.73-14.13-5.62c-7.5-7.51-7.5-19.68,0-27.19   c7.51-7.5,19.68-7.5,27.19,0c3.95,3.95,5.82,9.19,5.61,14.36L387.59,369.14z"/><path class="st0" d="M311.4,333.18c-6.02-6.02-6.02-15.77,0-21.79c6.01-6.01,15.77-6.01,21.78,0c4.44,4.44,5.6,10.9,3.49,16.41   l28.85,28.85c-1.78,1.05-3.46,2.34-4.99,3.87c-1.53,1.53-2.82,3.21-3.88,4.99l-28.85-28.85   C322.31,338.78,315.83,337.62,311.4,333.18z"/></g><g><path class="st0" d="M429.78,250.08l4.8-7.62h21.02c-0.61-1.95-1.44-3.79-2.48-5.5c-4.42-7.3-12.43-12.17-21.59-12.17   c-11.76,0-21.64,8.05-24.42,18.94c-0.52,2-0.79,4.1-0.79,6.27c0,2.16,0.27,4.26,0.79,6.27c2.78,10.89,12.66,18.94,24.42,18.94   c9.09,0,17.05-4.8,21.49-12c1.05-1.71,1.91-3.55,2.53-5.5h-20.97L429.78,250.08z M431.53,269.22c-10.61,0-19.22-8.6-19.22-19.22   s8.61-19.22,19.22-19.22c5.59,0,10.61,2.38,14.12,6.18h-14.12l-8.24,13.12l8.24,13.13h13.97   C441.99,266.91,437.03,269.22,431.53,269.22z"/><path class="st0" d="M352.23,265.4c-8.51,0-15.4-6.9-15.4-15.4c0-8.5,6.9-15.4,15.4-15.4c6.28,0,11.67,3.75,14.07,9.13h40.8   c-0.51,2-0.79,4.1-0.79,6.27c0,2.16,0.27,4.26,0.79,6.27h-40.8C363.9,261.65,358.5,265.4,352.23,265.4z"/></g><g><path class="st0" d="M402.89,115.79c-0.46-1.95-1.16-3.86-2.09-5.68l-14.83,14.83l-8.79-2.01l-2-8.78l14.87-14.87   c-1.81-0.94-3.7-1.65-5.65-2.13c-8.28-2.03-17.39,0.18-23.86,6.66c-8.32,8.31-9.61,20.99-3.88,30.67c0.26,0.44,0.54,0.88,0.83,1.31   c0.3,0.43,0.61,0.86,0.93,1.27c0.65,0.84,1.36,1.64,2.12,2.4c0.95,0.96,1.96,1.82,3.02,2.59c0.43,0.31,0.86,0.6,1.3,0.88   c0.22,0.14,0.44,0.28,0.66,0.41c9.68,5.73,22.36,4.44,30.67-3.88C402.62,133.04,404.85,124.02,402.89,115.79z M391.96,135.23   c-7.51,7.5-19.68,7.5-27.19,0c-7.5-7.51-7.5-19.68,0-27.19c3.95-3.95,9.19-5.82,14.36-5.61l-9.99,9.98l3.45,15.11l15.12,3.46   l9.87-9.88C397.72,126.2,395.85,131.34,391.96,135.23z"/><path class="st0" d="M333.18,188.6c-6.02,6.02-15.77,6.02-21.79,0c-6.01-6.01-6.01-15.77,0-21.78c4.44-4.44,10.9-5.6,16.41-3.49   l28.85-28.85c1.05,1.78,2.34,3.46,3.87,4.99c1.53,1.53,3.21,2.82,4.99,3.88l-28.85,28.85C338.78,177.69,337.62,184.17,333.18,188.6   z"/></g><path class="st0" d="M269.43,250c0,1.24-0.12,2.45-0.34,3.62c-1.7,9-9.6,15.81-19.09,15.81s-17.4-6.81-19.09-15.81  c-0.22-1.17-0.34-2.38-0.34-3.62c0-1.23,0.12-2.44,0.34-3.62c1.69-9,9.6-15.8,19.09-15.8s17.39,6.8,19.09,15.8  C269.31,247.56,269.43,248.77,269.43,250z"/><path class="st0" d="M302.92,288.66c0,10.73-8.7,19.42-19.42,19.42c-10.73,0-19.43-8.69-19.43-19.42c0-10.73,8.7-19.43,19.43-19.43  C294.22,269.23,302.92,277.93,302.92,288.66z"/><circle class="st0" cx="283.7" cy="220.72" r="9.81"/><circle class="st0" cx="240.38" cy="282.01" r="9.81"/><path class="st0" d="M244.45,203.01c0,7.66-6.21,13.87-13.88,13.87c-7.66,0-13.87-6.21-13.87-13.87c0-7.66,6.21-13.87,13.87-13.87  C238.24,189.14,244.45,195.35,244.45,203.01z"/><path class="st0" d="M230.57,250c0,1.24,0.12,2.45,0.34,3.62h-20.65c-1.59,5.91-6.98,10.25-13.39,10.25  c-7.66,0-13.87-6.21-13.87-13.87c0-7.66,6.21-13.87,13.87-13.87c6.41,0,11.81,4.34,13.39,10.25h20.65  C230.69,247.56,230.57,248.77,230.57,250z"/><path class="st0" d="M317,250c0,7.66-6.21,13.87-13.87,13.87c-6.41,0-11.8-4.34-13.4-10.25h-20.64c0.22-1.17,0.34-2.38,0.34-3.62  c0-1.23-0.12-2.44-0.34-3.62h20.64c1.59-5.91,6.99-10.25,13.4-10.25C310.79,236.13,317,242.34,317,250z"/><g><path class="st0" d="M114.96,224.89h55.23c-0.94,3.03-1.7,6.13-2.29,9.3h-52.94V224.89z"/></g><g><rect class="st0" height="9.3" width="35.26" x="118.14" y="204.09"/></g><g><path class="st0" d="M161.49,204.09h18.44c-1.93,2.98-3.69,6.08-5.23,9.3h-13.22V204.09z"/></g><g><rect class="st0" height="9.3" width="9.21" x="98.65" y="224.89"/></g><g><rect class="st0" height="9.3" width="9.21" x="98.65" y="291.73"/></g><g><path class="st0" d="M168.89,269.29c0.78,3.18,1.74,6.28,2.87,9.3h-63.89v-9.3H168.89z"/></g><g><path class="st0" d="M178.03,291.73c1.91,3.25,4.04,6.35,6.36,9.3h-70.06v-9.3H178.03z"/></g><g><rect class="st0" height="9.3" width="14.08" x="85.93" y="269.28"/></g><g><path class="st0" d="M224.89,385.04v-55.23c3.03,0.93,6.13,1.7,9.3,2.29v52.94H224.89z"/></g><g><rect class="st0" height="35.26" width="9.3" x="204.09" y="346.6"/></g><g><path class="st0" d="M204.09,338.51v-18.44c2.98,1.93,6.08,3.69,9.3,5.23v13.22H204.09z"/></g><g><rect class="st0" height="9.22" width="9.3" x="224.89" y="392.13"/></g><g><rect class="st0" height="9.22" width="9.3" x="291.73" y="392.13"/></g><g><path class="st0" d="M269.29,331.11c3.18-0.78,6.28-1.74,9.3-2.87v63.89h-9.3V331.11z"/></g><g><path class="st0" d="M291.73,321.97c3.25-1.91,6.35-4.04,9.3-6.36v70.06h-9.3V321.97z"/></g><g><rect class="st0" height="14.08" width="9.3" x="269.28" y="400"/></g><g><path class="st0" d="M385.04,275.11h-55.23c0.94-3.03,1.7-6.13,2.29-9.3h52.94V275.11z"/></g><g><rect class="st0" height="9.3" width="35.26" x="346.6" y="286.61"/></g><g><path class="st0" d="M338.51,295.91h-18.44c1.93-2.98,3.69-6.08,5.23-9.3h13.22V295.91z"/></g><g><rect class="st0" height="9.3" width="9.21" x="392.13" y="265.81"/></g><g><rect class="st0" height="9.3" width="9.21" x="392.13" y="198.97"/></g><g><path class="st0" d="M331.11,230.71c-0.78-3.18-1.74-6.28-2.87-9.3h63.89v9.3H331.11z"/></g><g><path class="st0" d="M321.97,208.27c-1.91-3.25-4.04-6.35-6.36-9.3h70.06v9.3H321.97z"/></g><g><rect class="st0" height="9.3" width="14.08" x="400" y="221.42"/></g><g><path class="st0" d="M275.11,114.96v55.23c-3.03-0.94-6.13-1.7-9.3-2.29v-52.94H275.11z"/></g><g><rect class="st0" height="35.26" width="9.3" x="286.61" y="118.14"/></g><g><path class="st0" d="M295.91,161.49v18.44c-2.98-1.93-6.08-3.69-9.3-5.23v-13.22H295.91z"/></g><g><rect class="st0" height="9.22" width="9.3" x="265.81" y="98.65"/></g><g><rect class="st0" height="9.22" width="9.3" x="198.97" y="98.65"/></g><g><path class="st0" d="M230.71,168.89c-3.18,0.78-6.28,1.74-9.3,2.87v-63.89h9.3V168.89z"/></g><g><path class="st0" d="M208.27,178.03c-3.25,1.91-6.35,4.04-9.3,6.36v-70.06h9.3V178.03z"/></g><g><rect class="st0" height="14.08" width="9.3" x="221.42" y="85.93"/></g><path class="st1" d="M216.7,203.01c0-7.66,6.21-13.87,13.87-13.87c7.67,0,13.88,6.21,13.88,13.87c0,7.66-6.21,13.87-13.88,13.87  C222.91,216.88,216.7,210.67,216.7,203.01z"/><circle class="st1" cx="240.38" cy="282.01" r="9.81"/><circle class="st1" cx="283.7" cy="220.72" r="9.81"/><path class="st1" d="M302.92,288.66c0,10.73-8.7,19.42-19.42,19.42c-10.73,0-19.43-8.69-19.43-19.42c0-10.73,8.7-19.43,19.43-19.43  C294.22,269.23,302.92,277.93,302.92,288.66z"/><path class="st1" d="M317,250c0,7.66-6.21,13.87-13.87,13.87c-6.41,0-11.8-4.34-13.4-10.25h-20.64c-1.7,9-9.6,15.81-19.09,15.81  s-17.4-6.81-19.09-15.81h-20.65c-1.59,5.91-6.98,10.25-13.39,10.25c-7.66,0-13.87-6.21-13.87-13.87c0-7.66,6.21-13.87,13.87-13.87  c6.41,0,11.81,4.34,13.39,10.25h20.65c1.69-9,9.6-15.8,19.09-15.8s17.39,6.8,19.09,15.8h20.64c1.59-5.91,6.99-10.25,13.4-10.25  C310.79,236.13,317,242.34,317,250z"/></svg>