<?xml version="1.0" ?><svg id="Layer_1_1_" style="enable-background:new 0 0 64 64;" version="1.1" viewBox="0 0 64 64" xml:space="preserve" xmlns="http://www.w3.org/2000/svg" xmlns:xlink="http://www.w3.org/1999/xlink"><g><g><polygon points="50,46 55,46 55,33 62,33 62,55 50,55   " style="fill:#00F4CB;"/></g><g><polygon points="14,46 9,46 9,33 2,33 2,55 14,55   " style="fill:#00F4CB;"/></g><g><path d="M39,47c0.553,0,1-0.448,1-1s-0.447-1-1-1h-2v-2.875C42.817,40.059,47,34.516,47,28c0-1.02-0.115-2.023-0.318-3H62    c0.313,0,0.609-0.147,0.799-0.398c0.188-0.25,0.249-0.575,0.163-0.877l-1.39-4.863c-0.479-1.673-1.763-2.957-3.435-3.434    L54,14.246V13.46c1.224-1.099,2-2.688,2-4.46V7c0-3.309-2.691-6-6-6s-6,2.691-6,6v2c0,1.771,0.776,3.36,2,4.46v0.786l-4.138,1.183    c-0.37,0.105-0.716,0.267-1.05,0.452c-1.054-0.772-2.21-1.419-3.462-1.898c-0.115-0.044-0.234-0.058-0.351-0.058V13    c0-2.757-2.243-5-5-5s-5,2.243-5,5v0.926c-0.119,0-0.24,0.015-0.357,0.06c-1.25,0.478-2.404,1.125-3.455,1.895    c-0.333-0.186-0.68-0.347-1.05-0.452L18,14.246V13.46c1.224-1.099,2-2.688,2-4.46V7c0-3.309-2.691-6-6-6S8,3.691,8,7v2    c0,1.771,0.776,3.36,2,4.46v0.786l-4.138,1.183c-1.672,0.477-2.956,1.761-3.435,3.434l-1.39,4.863    c-0.086,0.302-0.025,0.626,0.163,0.877C1.391,24.853,1.687,25,2,25h15.318C17.115,25.977,17,26.98,17,28    c0,6.516,4.183,12.059,10,14.125V45h-2c-0.553,0-1,0.448-1,1s0.447,1,1,1h2v2h-2c-0.553,0-1,0.448-1,1s0.447,1,1,1h2v7    c0,2.757,2.243,5,5,5s5-2.243,5-5v-7h2c0.553,0,1-0.448,1-1s-0.447-1-1-1h-2v-2H39z M48,14.65c0.627,0.223,1.298,0.35,2,0.35    s1.373-0.128,2-0.35V15c0,1.103-0.897,2-2,2s-2-0.897-2-2V14.65z M46,7c0-2.206,1.794-4,4-4s4,1.794,4,4v2c0,2.206-1.794,4-4,4    s-4-1.794-4-4V7z M46.223,16.262C46.755,17.847,48.237,19,50,19s3.245-1.153,3.777-2.738l3.812,1.089    c1.003,0.287,1.773,1.057,2.06,2.061L60.674,23H46.12c-0.765-2.14-2.004-4.082-3.615-5.676L46.223,16.262z M29,13    c0-1.654,1.346-3,3-3s3,1.346,3,3v2c0,1.654-1.346,3-3,3s-3-1.346-3-3V13z M33,20c0,0.551-0.448,1-1,1s-1-0.449-1-1v-0.101    C31.323,19.965,31.658,20,32,20s0.677-0.035,1-0.101V20z M29.239,21.172C29.696,22.245,30.761,23,32,23s2.304-0.755,2.761-1.828    l1.766,0.353c1.054,0.21,1.919,0.974,2.259,1.993L39.612,26H24.388l0.826-2.481c0.34-1.019,1.205-1.783,2.259-1.993L29.239,21.172    z M12,14.65c0.627,0.223,1.298,0.35,2,0.35s1.373-0.128,2-0.35V15c0,1.103-0.897,2-2,2s-2-0.897-2-2V14.65z M10,7    c0-2.206,1.794-4,4-4s4,1.794,4,4v2c0,2.206-1.794,4-4,4s-4-1.794-4-4V7z M3.326,23l1.025-3.588    c0.286-1.004,1.057-1.774,2.06-2.061l3.812-1.089C10.755,17.847,12.237,19,14,19s3.245-1.153,3.777-2.738l3.718,1.062    c-1.611,1.594-2.85,3.536-3.615,5.676H3.326z M19,28c0-5.259,3.245-10.055,8.098-12.035c0.242,1.229,0.943,2.285,1.907,3.013    C29.004,18.986,29,18.992,29,19v0.18l-1.92,0.384c-1.755,0.351-3.197,1.624-3.763,3.322l-1.266,3.798    c-0.103,0.305-0.051,0.64,0.137,0.901C22.377,27.846,22.679,28,23,28h18c0.321,0,0.623-0.154,0.812-0.415    c0.188-0.261,0.239-0.596,0.137-0.901l-1.266-3.798c-0.565-1.698-2.008-2.971-3.763-3.321L35,19.18V19    c0-0.008-0.004-0.014-0.004-0.022c0.964-0.728,1.665-1.785,1.907-3.014C41.756,17.945,45,22.741,45,28c0,7.168-5.832,13-13,13    S19,35.168,19,28z M29,42.698C29.97,42.895,30.973,43,32,43s2.03-0.105,3-0.302V45h-6V42.698z M35,58c0,1.654-1.346,3-3,3    s-3-1.346-3-3v-7h6V58z M35,49h-6v-2h6V49z"/><path d="M44,52c-1.654,0-3,1.346-3,3s1.346,3,3,3s3-1.346,3-3S45.654,52,44,52z M44,56c-0.552,0-1-0.449-1-1s0.448-1,1-1    s1,0.449,1,1S44.552,56,44,56z"/><path d="M20,52c-1.654,0-3,1.346-3,3s1.346,3,3,3s3-1.346,3-3S21.654,52,20,52z M20,56c-0.552,0-1-0.449-1-1s0.448-1,1-1    s1,0.449,1,1S20.552,56,20,56z"/><path d="M62,32c-0.553,0-1,0.448-1,1v21H50c-0.553,0-1,0.448-1,1s0.447,1,1,1h12c0.553,0,1-0.448,1-1V33    C63,32.448,62.553,32,62,32z"/><path d="M54,33v12h-3c-0.553,0-1,0.448-1,1s0.447,1,1,1h4c0.553,0,1-0.448,1-1V33c0-0.552-0.447-1-1-1S54,32.448,54,33z"/><circle cx="47" cy="46" r="1"/><circle cx="43" cy="46" r="1"/><path d="M14,54H3V33c0-0.552-0.447-1-1-1s-1,0.448-1,1v22c0,0.552,0.447,1,1,1h12c0.553,0,1-0.448,1-1S14.553,54,14,54z"/><path d="M9,32c-0.553,0-1,0.448-1,1v13c0,0.552,0.447,1,1,1h4c0.553,0,1-0.448,1-1s-0.447-1-1-1h-3V33C10,32.448,9.553,32,9,32z"/><circle cx="17" cy="46" r="1"/><circle cx="21" cy="46" r="1"/></g></g></svg>