<?xml version="1.0" ?><!DOCTYPE svg  PUBLIC '-//W3C//DTD SVG 1.1//EN'  'http://www.w3.org/Graphics/SVG/1.1/DTD/svg11.dtd'><svg height="512px" style="enable-background:new 0 0 512 512;" version="1.1" viewBox="0 0 512 512" width="512px" xml:space="preserve" xmlns="http://www.w3.org/2000/svg" xmlns:xlink="http://www.w3.org/1999/xlink"><g id="_x35_03_x2C__growth__x2C__knowledge_x2C__growth_knowledge_x2C__education"><g><path d="M260.25,413.26c0.5,2.83,0.75,5.75,0.75,8.75c0,3.521-0.34,7.141-1.03,10.811    c-6.68,1.25-13.21,1.37-19.28,0.319c-8.15-1.399-15.46-4.899-21.19-10.64c-5.61-5.6-9.09-12.72-10.55-20.65    c-1.15-6.22-1.05-12.939,0.23-19.819c6.98-1.3,13.8-1.38,20.1-0.181c7.82,1.5,14.83,4.96,20.37,10.5    C255.32,398.01,258.81,405.22,260.25,413.26z" style="fill:#79CCD0;"/><path d="M208.18,393.03c6.98-1.3,13.8-1.38,20.1-0.181c7.82,1.5,14.83,4.96,20.37,10.5    c5.67,5.66,9.16,12.87,10.6,20.91c0.481,2.726,0.726,5.536,0.743,8.419c0.673-3.621,1.007-7.194,1.007-10.669    c0-3-0.25-5.92-0.75-8.75c-1.44-8.04-4.93-15.25-10.6-20.91c-5.54-5.54-12.55-9-20.37-10.5c-6.3-1.199-13.12-1.119-20.1,0.181    c-0.701,3.768-1.035,7.484-1.017,11.1C208.17,393.097,208.174,393.063,208.18,393.03z" style="fill:#60B2B2;"/><path d="M312.82,330.79c1.279,6.88,1.38,13.6,0.229,19.82c-1.46,7.93-4.939,15.05-10.55,20.659    c-5.73,5.73-13.04,9.23-21.19,10.641c-6.069,1.04-12.6,0.92-19.279-0.33c-0.69-3.66-1.03-7.28-1.03-10.811    c0-2.989,0.25-5.92,0.75-8.75c1.44-8.029,4.93-15.25,10.6-20.909c5.54-5.54,12.551-9,20.37-10.49    C299.02,329.41,305.84,329.49,312.82,330.79z" style="fill:#79CCD0;"/><path d="M261.75,372.52c1.44-8.029,4.93-15.25,10.6-20.909c5.54-5.54,12.551-9,20.37-10.49    c6.3-1.21,13.12-1.13,20.101,0.17c0.341,1.833,0.592,3.653,0.764,5.456c0.513-5.104,0.255-10.477-0.764-15.956    c-6.98-1.3-13.801-1.38-20.101-0.17c-7.819,1.49-14.83,4.95-20.37,10.49c-5.67,5.659-9.159,12.88-10.6,20.909    c-0.5,2.83-0.75,5.761-0.75,8.75c0,1.776,0.087,3.575,0.26,5.391C261.382,374.932,261.539,373.715,261.75,372.52z" style="fill:#60B2B2;"/><rect height="60" style="fill:#FF7979;" width="110" x="301" y="151"/><polygon points="310.25,161 411,161 411,151 301,151 301,211 310.25,211   " style="fill:#D65B5B;"/><path d="M451,31v230H261V99c0-37.56,30.44-68,68-68H451z M411,211v-60H301v60H411z" style="fill:#FCD884;"/><path d="M261,99v162H71V31h122C230.56,31,261,61.44,261,99z M221,191v-20h-20v20H221z M191,191v-20h-20v20    H191z M161,191v-20h-20v20H161z M131,191v-20h-20v20H131z" style="fill:#FFEBBE;"/><g><g><g><path d="M81.625,42.375h122c16.827,0,32.214,6.123,44.086,16.245C235.326,41.867,215.437,31,193,31H71       v230h10.625V42.375z" style="fill:#E5D0A8;"/></g></g></g><rect height="20" width="20" x="201" y="171"/><rect height="20" width="20" x="171" y="171"/><rect height="20" width="20" x="141" y="171"/><rect height="20" width="20" x="111" y="171"/><path d="M261,266H71c-2.761,0-5-2.238-5-5V31c0-2.761,2.239-5,5-5h122c40.252,0,73,32.748,73,73c0,2.761-2.238,5-5,5s-5-2.239-5-5    c0-34.738-28.262-63-63-63H76v220h185c2.762,0,5,2.238,5,5S263.762,266,261,266z"/><path d="M269.667,109c0-37.56,30.44-68,68-68H451V31H329c-37.56,0-68,30.44-68,68v162h8.667V109z" style="fill:#EABF6A;"/><path d="M451,266H261c-2.762,0-5-2.238-5-5V99c0-40.252,32.748-73,73-73h122c2.762,0,5,2.239,5,5v230    C456,263.762,453.762,266,451,266z M266,256h180V36H329c-34.738,0-63,28.262-63,63V256z"/><path d="M411,216H301c-2.762,0-5-2.239-5-5v-60c0-2.761,2.238-5,5-5h110c2.762,0,5,2.239,5,5v60C416,213.761,413.762,216,411,216z     M306,206h100v-50H306V206z"/><path d="M411,126H301c-2.762,0-5-2.239-5-5s2.238-5,5-5h110c2.762,0,5,2.239,5,5S413.762,126,411,126z"/><path d="M411,96H301c-2.762,0-5-2.239-5-5s2.238-5,5-5h110c2.762,0,5,2.239,5,5S413.762,96,411,96z"/><path d="M221,96H111c-2.761,0-5-2.239-5-5s2.239-5,5-5h110c2.761,0,5,2.239,5,5S223.761,96,221,96z"/><path d="M171,126h-60c-2.761,0-5-2.239-5-5s2.239-5,5-5h60c2.761,0,5,2.239,5,5S173.761,126,171,126z"/><path d="M221,156h-60c-2.761,0-5-2.239-5-5s2.239-5,5-5h60c2.761,0,5,2.239,5,5S223.761,156,221,156z"/><path d="M121,158h-10c-2.761,0-5-2.239-5-5s2.239-5,5-5h10c2.761,0,5,2.239,5,5S123.761,158,121,158z"/><path d="M221,216H111c-2.761,0-5-2.239-5-5s2.239-5,5-5h110c2.761,0,5,2.239,5,5S223.761,216,221,216z"/><path d="M491,306H291c-1.574,0-3.056-0.741-4-2l-30-40c-1.657-2.209-1.209-5.343,1-7c2.21-1.656,5.343-1.209,7,1l28.5,38H486V81    c0-2.761,2.238-5,5-5s5,2.239,5,5v220C496,303.762,493.762,306,491,306z"/><path d="M261,486c-2.762,0-5-2.238-5-5V276l-21,28c-0.944,1.259-2.426,2-4,2H31c-2.761,0-5-2.238-5-5V81c0-2.761,2.239-5,5-5    s5,2.239,5,5v215h192.5l28.5-38c1.292-1.721,3.54-2.423,5.581-1.744c2.042,0.681,3.419,2.591,3.419,4.744v220    C266,483.762,263.762,486,261,486z"/><path d="M441,486H81c-2.761,0-5-2.238-5-5s2.239-5,5-5h360c2.762,0,5,2.238,5,5S443.762,486,441,486z"/><path d="M272.849,387.612c-0.001,0-0.001,0-0.002,0c-3.825,0-7.774-0.376-11.736-1.117c-2.025-0.38-3.611-1.963-3.993-3.988    c-0.741-3.929-1.117-7.878-1.117-11.737c0-3.28,0.278-6.517,0.826-9.62c1.66-9.256,5.807-17.404,11.991-23.578    c6.136-6.136,13.864-10.128,22.966-11.862c6.815-1.309,14.33-1.255,21.952,0.166c2.033,0.378,3.623,1.969,4.001,4.001    c1.408,7.573,1.485,14.855,0.23,21.644c-1.677,9.104-5.803,17.158-11.932,23.286c-6.25,6.25-14.506,10.41-23.873,12.031    C279.157,387.352,276.026,387.612,272.849,387.612z M266.404,377.204c2.182,0.271,4.338,0.408,6.443,0.408l0,0    c2.614,0,5.177-0.212,7.617-0.63c7.421-1.284,13.647-4.396,18.5-9.248c4.756-4.756,7.841-10.822,9.168-18.029    c0.843-4.56,0.946-9.436,0.311-14.537c-5.18-0.64-10.192-0.518-14.78,0.362c-7.104,1.354-13.083,4.42-17.778,9.115    c-4.801,4.792-7.899,10.934-9.213,18.257c-0.445,2.518-0.672,5.169-0.672,7.867C266,372.886,266.136,375.039,266.404,377.204z"/><path d="M249.18,438.851c-3.193,0-6.336-0.264-9.343-0.784c-9.364-1.608-17.623-5.77-23.875-12.034    c-6.124-6.112-10.251-14.164-11.929-23.277c-1.255-6.785-1.177-14.067,0.232-21.64c0.378-2.032,1.968-3.622,4-4    c7.612-1.418,15.115-1.479,21.95-0.178c9.111,1.748,16.837,5.743,22.971,11.877c6.185,6.174,10.331,14.323,11.986,23.563    c0.55,3.115,0.828,6.352,0.828,9.632c0,3.849-0.376,7.797-1.116,11.735c-0.382,2.026-1.968,3.61-3.994,3.99    C256.934,438.476,252.994,438.851,249.18,438.851z M213.557,386.408c-0.636,5.101-0.533,9.975,0.31,14.532    c1.328,7.214,4.412,13.275,9.166,18.021c4.857,4.866,11.081,7.977,18.504,9.251c4.408,0.763,9.164,0.84,14.059,0.232    c0.27-2.169,0.405-4.322,0.405-6.435c0-2.698-0.227-5.35-0.674-7.88c-1.309-7.309-4.408-13.449-9.209-18.242    c-4.695-4.695-10.676-7.766-17.779-9.128C223.754,385.887,218.733,385.766,213.557,386.408z"/><path d="M491,436H391c-2.762,0-5-2.238-5-5s2.238-5,5-5h100c2.762,0,5,2.238,5,5S493.762,436,491,436z"/><path d="M441,406H341c-2.762,0-5-2.238-5-5s2.238-5,5-5h100c2.762,0,5,2.238,5,5S443.762,406,441,406z"/><path d="M171,436H71c-2.761,0-5-2.238-5-5s2.239-5,5-5h100c2.761,0,5,2.238,5,5S173.761,436,171,436z"/><path d="M121,406H21c-2.761,0-5-2.238-5-5s2.239-5,5-5h100c2.761,0,5,2.238,5,5S123.761,406,121,406z"/></g></g><g id="Layer_1"/></svg>