<?xml version="1.0" ?><!DOCTYPE svg  PUBLIC '-//W3C//DTD SVG 1.1//EN'  'http://www.w3.org/Graphics/SVG/1.1/DTD/svg11.dtd'><svg enable-background="new 0 0 48 48" height="48px" id="Layer_4" version="1.1" viewBox="0 0 48 48" width="48px" xml:space="preserve" xmlns="http://www.w3.org/2000/svg" xmlns:xlink="http://www.w3.org/1999/xlink"><g><path d="M29.105,11.203H1.532C0.685,11.203,0,11.89,0,12.734v18.316c0,0.85,0.685,1.533,1.532,1.533h11.446v5.348   h0.044l-3.927,3.842h4.63h3.191h4.628l-3.928-3.842v-5.348h11.489c0.847,0,1.532-0.684,1.532-1.533V12.734   C30.638,11.89,29.952,11.203,29.105,11.203z M25.858,26c0,0.057-0.022,0.109-0.033,0.162v0.678h-0.026   c-0.065,0.688-0.6,1.227-1.291,1.301h-0.291c-0.018-0.004-0.035-0.008-0.053-0.014c-0.018,0.006-0.037,0.01-0.055,0.014H6.53   c-0.026-0.008-0.055-0.008-0.081-0.018c-0.027,0.004-0.055,0.01-0.081,0.018H6.064c-0.641-0.074-1.145-0.561-1.254-1.195H4.762   v-9.764c0-0.805,0.656-1.462,1.463-1.462h18.232v0.022c0.761,0.048,1.368,0.67,1.368,1.44v0.674   c0.011,0.052,0.033,0.105,0.033,0.162V26z" fill="#241F20"/><path d="M32.222,6.226v35.547H48V6.226H32.222z M43.845,26.102h-7.467c-1.16,0-2.102-0.941-2.102-2.101   c0-1.16,0.941-2.102,2.102-2.102h7.467c1.159,0,2.101,0.941,2.101,2.102C45.945,25.16,45.004,26.102,43.845,26.102z M43.886,16.897   h-7.467c-1.16,0-2.101-0.941-2.101-2.101s0.94-2.101,2.101-2.101h7.467c1.16,0,2.101,0.941,2.101,2.101   S45.046,16.897,43.886,16.897z" fill="#241F20"/></g></svg>