<?xml version="1.0" ?><!DOCTYPE svg  PUBLIC '-//W3C//DTD SVG 1.1//EN'  'http://www.w3.org/Graphics/SVG/1.1/DTD/svg11.dtd'><svg enable-background="new 0 0 512 512" height="512px" id="Calque_3" version="1.1" viewBox="0 0 512 512" width="512px" xml:space="preserve" xmlns="http://www.w3.org/2000/svg" xmlns:xlink="http://www.w3.org/1999/xlink"><g><linearGradient gradientUnits="userSpaceOnUse" id="SVGID_1_" x1="215.675" x2="215.675" y1="269.9172" y2="300.8645"><stop offset="0" style="stop-color:#FF3C00"/><stop offset="1" style="stop-color:#FF9700"/></linearGradient><rect fill="url(#SVGID_1_)" height="30.947" width="14.788" x="208.281" y="269.917"/><linearGradient gradientUnits="userSpaceOnUse" id="SVGID_2_" x1="243.1858" x2="243.1858" y1="344.5354" y2="357.8596"><stop offset="0" style="stop-color:#FF3C00"/><stop offset="1" style="stop-color:#FF9700"/></linearGradient><rect fill="url(#SVGID_2_)" height="13.324" width="193.939" x="146.217" y="344.535"/><linearGradient gradientUnits="userSpaceOnUse" id="SVGID_3_" x1="241.2903" x2="241.2903" y1="120.3489" y2="258.9177"><stop offset="0" style="stop-color:#FF3C00"/><stop offset="1" style="stop-color:#FF9700"/></linearGradient><path d="M220.144,120.349h-19.256v138.568h1.894h25.788h25.438h25.787h1.897V120.349h-19.257H220.144z    M218,244.966c0,3.038-2.462,5.5-5.5,5.5s-5.5-2.462-5.5-5.5v-110c0-3.038,2.462-5.5,5.5-5.5s5.5,2.462,5.5,5.5V244.966z" fill="url(#SVGID_3_)"/><linearGradient gradientUnits="userSpaceOnUse" id="SVGID_4_" x1="241.2893" x2="241.2893" y1="51.2375" y2="109.3489"><stop offset="0" style="stop-color:#FF3C00"/><stop offset="1" style="stop-color:#FF9700"/></linearGradient><rect fill="url(#SVGID_4_)" height="58.111" width="31.292" x="225.643" y="51.238"/><linearGradient gradientUnits="userSpaceOnUse" id="SVGID_5_" x1="266.9021" x2="266.9021" y1="269.9172" y2="300.8645"><stop offset="0" style="stop-color:#FF3C00"/><stop offset="1" style="stop-color:#FF9700"/></linearGradient><rect fill="url(#SVGID_5_)" height="30.947" width="14.787" x="259.509" y="269.917"/><linearGradient gradientUnits="userSpaceOnUse" id="SVGID_6_" x1="238.9905" x2="238.9905" y1="161.7043" y2="460.7615"><stop offset="0" style="stop-color:#FF3C00"/><stop offset="1" style="stop-color:#FF9700"/></linearGradient><path d="M365.242,329.319c0-19.934,14.832-36.461,34.039-39.147v-61.838   c-1.496-3.606-8.235-18.46-23.104-33.092c-21.527-21.183-49.595-32.444-83.484-33.537v44.604h22.68c1.368,0,2.687,0.51,3.699,1.43   l30.285,27.521c1.146,1.042,1.801,2.519,1.801,4.07v154.023c0,3.037-2.463,5.5-5.5,5.5H86.518   c-4.058,9.666-14.95,40.295-0.727,61.907l313.489-0.002v-92.292C380.074,365.781,365.242,349.255,365.242,329.319z M345.656,436.08   H102.598c-3.038,0-5.5-2.463-5.5-5.5c0-3.035,2.462-5.5,5.5-5.5h243.058c3.038,0,5.5,2.465,5.5,5.5   C351.156,433.617,348.693,436.08,345.656,436.08z" fill="url(#SVGID_6_)"/><linearGradient gradientUnits="userSpaceOnUse" id="SVGID_7_" x1="404.782" x2="404.782" y1="300.7805" y2="357.8596"><stop offset="0" style="stop-color:#FF3C00"/><stop offset="1" style="stop-color:#FF9700"/></linearGradient><path d="M404.781,300.781c-15.736,0-28.539,12.805-28.539,28.54c0,15.736,12.803,28.539,28.539,28.539   c15.738,0,28.542-12.803,28.541-28.539C433.322,313.584,420.518,300.781,404.781,300.781z M404.781,346.321   c-9.374,0-17-7.626-17-17s7.626-17,17-17c9.375,0,17,7.626,17,17S414.155,346.321,404.781,346.321z" fill="url(#SVGID_7_)"/><linearGradient gradientUnits="userSpaceOnUse" id="SVGID_8_" x1="404.781" x2="404.781" y1="323.3206" y2="335.3206"><stop offset="0" style="stop-color:#FF3C00"/><stop offset="1" style="stop-color:#FF9700"/></linearGradient><path d="M404.781,323.321c-3.309,0-6,2.691-6,6c0,3.311,2.691,6,6,6s6-2.69,6-6   C410.781,326.012,408.09,323.321,404.781,323.321z" fill="url(#SVGID_8_)"/><linearGradient gradientUnits="userSpaceOnUse" id="SVGID_9_" x1="255.9993" x2="255.9993" y1="6.5002" y2="505.5007"><stop offset="0" style="stop-color:#FF3C00"/><stop offset="1" style="stop-color:#FF9700"/></linearGradient><path d="M438.5,6.5h-365c-35.841,0-65,29.159-65,65v369c0,35.841,29.159,65,65,65h365   c35.842,0,65-29.159,65-65v-369C503.5,35.659,474.342,6.5,438.5,6.5z M410.281,368.468v97.792c0,3.037-2.463,5.5-5.5,5.5H82.952   c-1.717,0-3.335-0.803-4.376-2.168c-23.793-31.248-1.504-76.774-0.544-78.697c0.931-1.864,2.836-3.042,4.92-3.042h257.203v-18.994   H140.716c-3.037,0-5.5-2.463-5.5-5.5v-24.324c0-3.037,2.463-5.5,5.5-5.5h199.44v-91.771l-26.911-24.454h-20.554v41.607h5.761   c3.037,0,5.5,2.463,5.5,5.5s-2.463,5.5-5.5,5.5h-11.261h-1.896v36.447c0,3.037-2.463,5.5-5.5,5.5h-25.787   c-3.036,0-5.5-2.463-5.5-5.5v-36.447h-14.438v36.447c0,3.037-2.462,5.5-5.5,5.5h-25.788c-3.038,0-5.5-2.463-5.5-5.5v-36.447h-1.894   h-11.774c-3.038,0-5.5-2.463-5.5-5.5s2.462-5.5,5.5-5.5h6.274V114.849c0-3.038,2.462-5.5,5.5-5.5h19.256V45.738   c0-3.036,2.462-5.5,5.5-5.5h42.292c3.037,0,5.5,2.464,5.5,5.5v63.612h19.257c3.037,0,5.5,2.462,5.5,5.5v35.854   c46.089,1.438,75.158,20.767,91.596,37.089c18.584,18.451,25.385,36.843,25.665,37.617c0.218,0.601,0.329,1.233,0.329,1.874v62.889   c19.208,2.685,34.041,19.212,34.041,39.147S429.49,365.781,410.281,368.468z" fill="url(#SVGID_9_)"/></g></svg>