<svg xmlns="http://www.w3.org/2000/svg" xmlns:xlink="http://www.w3.org/1999/xlink" width="24" height="24" viewBox="0 0 24 24">
    <defs>
        <path id="a" d="M0 0h24v24H0z"/>
    </defs>
    <g fill="none" fill-rule="evenodd">
        <mask id="b" fill="#fff">
            <use xlink:href="#a"/>
        </mask>
        <g fill="#484848" mask="url(#b)">
            <path d="M5.25 10.505a5.25 5.25 0 1 1 0-10.5 5.25 5.25 0 0 1 0 10.5zm0-1.5a3.75 3.75 0 1 0 0-7.5 3.75 3.75 0 0 0 0 7.5zm0 15a5.25 5.25 0 1 1 0-10.5 5.25 5.25 0 0 1 0 10.5zm0-1.5a3.75 3.75 0 1 0 0-7.5 3.75 3.75 0 0 0 0 7.5zm13.5-12a5.25 5.25 0 1 1 0-10.5 5.25 5.25 0 0 1 0 10.5zm0-1.5a3.75 3.75 0 1 0 0-7.5 3.75 3.75 0 0 0 0 7.5zm0 15a5.25 5.25 0 1 1 0-10.5 5.25 5.25 0 0 1 0 10.5zm0-1.5a3.75 3.75 0 1 0 0-7.5 3.75 3.75 0 0 0 0 7.5z"/>
        </g>
    </g>
</svg>
