<svg xmlns="http://www.w3.org/2000/svg" xmlns:xlink="http://www.w3.org/1999/xlink" width="24" height="24" viewBox="0 0 24 24">
    <defs>
        <path id="a" d="M0 0h24v24H0z"/>
    </defs>
    <g fill="none" fill-rule="evenodd">
        <mask id="b" fill="#fff">
            <use xlink:href="#a"/>
        </mask>
        <g fill="#484848" mask="url(#b)">
            <path d="M12.75 11.25h3.75a.75.75 0 1 1 0 1.5h-3.75v3.75a.75.75 0 1 1-1.5 0v-3.75H7.5a.75.75 0 1 1 0-1.5h3.75V7.5a.75.75 0 1 1 1.5 0v3.75zM12 24C5.373 24 0 18.627 0 12S5.373 0 12 0s12 5.373 12 12-5.373 12-12 12zm0-1.5c5.799 0 10.5-4.701 10.5-10.5S17.799 1.5 12 1.5 1.5 6.201 1.5 12 6.201 22.5 12 22.5z"/>
        </g>
    </g>
</svg>
