<svg xmlns="http://www.w3.org/2000/svg" xmlns:xlink="http://www.w3.org/1999/xlink" width="24" height="24" viewBox="0 0 24 24">
    <defs>
        <path id="a" d="M0 0h24v24H0z"/>
    </defs>
    <g fill="none" fill-rule="evenodd">
        <mask id="b" fill="#fff">
            <use xlink:href="#a"/>
        </mask>
        <g fill="#484848" mask="url(#b)">
            <path d="M16.25 22.497h6.02a.23.23 0 0 0 .23-.228l.001-12.48a.493.493 0 0 0-.08-.243L12 1.686 1.636 9.497a.427.427 0 0 0-.136.25v12.52c0 .127.103.23.228.23H7.75V16c0-.966.784-1.75 1.75-1.75h5c.966 0 1.75.784 1.75 1.75v6.497zm7.75-.226a1.731 1.731 0 0 1-1.728 1.726H1.726A1.731 1.731 0 0 1 0 22.269L.001 9.705c.029-.5.25-.969.674-1.357l10.873-8.2a.75.75 0 0 1 .904 0l10.93 8.249c.368.34.588.808.618 1.35v12.524zm-9.25-.021V16a.25.25 0 0 0-.25-.25h-5a.25.25 0 0 0-.25.25v6.25h5.5z"/>
        </g>
    </g>
</svg>
