<svg xmlns="http://www.w3.org/2000/svg" xmlns:xlink="http://www.w3.org/1999/xlink" width="24" height="24" viewBox="0 0 24 24">
    <defs>
        <path id="a" d="M0 0h24v24H0z"/>
    </defs>
    <g fill="none" fill-rule="evenodd">
        <mask id="b" fill="#fff">
            <use xlink:href="#a"/>
        </mask>
        <g fill="#484848" mask="url(#b)">
            <path d="M12 0C5.373 0 0 5.373 0 12s5.373 12 12 12 12-5.373 12-12C23.993 5.376 18.624.007 12 0zm.25 5a1.5 1.5 0 1 1 0 3 1.5 1.5 0 0 1 0-3zm2.25 13.5h-4a1 1 0 0 1 0-2h.75a.25.25 0 0 0 .25-.25v-4.5a.25.25 0 0 0-.25-.25h-.75a1 1 0 0 1 0-2h1a2 2 0 0 1 2 2v4.75c0 .138.112.25.25.25h.75a1 1 0 0 1 0 2z"/>
        </g>
    </g>
</svg>
